<?xml version="1.0" encoding="UTF-8" standalone="no"?><!DOCTYPE svg PUBLIC "-//W3C//DTD SVG 1.1//EN" "http://www.w3.org/Graphics/SVG/1.1/DTD/svg11.dtd"><svg width="100%" height="100%" viewBox="0 0 100 65" version="1.1" xmlns="http://www.w3.org/2000/svg" xmlns:xlink="http://www.w3.org/1999/xlink" xml:space="preserve" xmlns:serif="http://www.serif.com/" style="fill-rule:evenodd;clip-rule:evenodd;stroke-linejoin:round;stroke-miterlimit:2;"><path d="M23.259,2.576l-0,13.175l4.593,-3.401l0,-9.774l-4.593,-0Zm-0,26.984l-0,19.122c-0,1.693 -0.368,2.959 -1.104,3.769c-0.736,0.809 -1.722,1.221 -2.93,1.221c-1.089,0 -2.031,-0.265 -2.826,-0.779c-0.795,-0.516 -1.561,-1.252 -2.311,-2.194l-2.944,3.018c0.854,1.163 1.928,2.134 3.238,2.929c1.31,0.795 2.944,1.193 4.917,1.193c1.28,-0 2.443,-0.192 3.489,-0.56c1.045,-0.383 1.943,-0.942 2.694,-1.693c0.751,-0.751 1.339,-1.693 1.752,-2.796c0.412,-1.119 0.618,-2.444 0.618,-3.975l0,-22.656l-4.593,3.401Zm26.851,27.896l-15.295,-36.464l-3.504,2.591l7.008,16.694l-7.008,0.014l0,4.578l8.921,0l5.285,12.587l4.593,0Zm33.079,-23.024l-9.673,23.068l-4.592,-0l-4.903,-11.703l-4.916,11.703l-4.593,-0l-16.326,-38.952l3.503,-2.605l15.134,36.081l4.902,-11.703l4.593,-0l4.902,11.703l8.465,-20.198l3.504,2.606Zm-33.226,-34.432l-49.963,37.053l2.738,3.695l47.225,-35.037l47.299,35.081l2.738,-3.695l-50.037,-37.097Zm14.471,6.83l22.935,0l-3.415,4.579l-2.341,-0l0,8.17l-4.578,-3.416l0,-4.754l-6.404,-0l-6.197,-4.579Zm-16.09,16.179l-0.221,0.176l-0.118,-0.28l0.236,-0.161l9.539,-7.081l0.235,0.176l-9.671,7.17Zm1.825,-12.955l-0.235,-0.176l-5.668,4.165l0.118,0.281l5.785,-4.27Zm2.502,1.855l-6.845,5.079l-0.221,0.176l-0.117,-0.279l0.22,-0.177l6.728,-4.975l0.235,0.176Zm2.68,1.972l-8.259,6.11l-0.235,0.177l-0.118,-0.28l0.236,-0.162l8.125,-6.021l0.251,0.176Zm5.329,3.931l-11.07,8.214l-0.236,0.177l-0.103,-0.28l0.221,-0.176l10.952,-8.111l0.236,0.176Zm2.679,1.972l-12.483,9.246l-0.236,0.176l-0.118,-0.265l0.236,-0.176l12.365,-9.157l0.236,0.176Zm2.664,1.974l-13.882,10.29l-0.235,0.176l-0.118,-0.279l0.236,-0.162l13.764,-10.202l0.235,0.177Zm2.68,1.957l-15.31,11.351l-0.221,0.161l-0.117,-0.265l0.235,-0.177l15.163,-11.247l0.25,0.177Zm2.664,1.973l-16.708,12.38l-0.236,0.177l-0.118,-0.265l0.236,-0.177l16.59,-12.292l0.236,0.177Zm-12.66,12.984l-2.9,2.135l-0.235,0.176l0.117,0.28l0.236,-0.177l2.561,-1.899l0.457,-0.338l0.221,-0.516l-0.457,0.339Zm15.325,-11.011l-12.439,9.23l-0.398,0.279l-0.471,0l0.382,-0.279l12.691,-9.407l0.22,0.162l0.015,0.015Zm2.664,1.972l-0.029,-0.044l-0.192,-0.148l-10.039,7.45l-0.398,0.279l0.486,0l0.398,-0.279l9.774,-7.258Zm-19.299,13.852l-0.162,0.487l-0.029,0.014l-0.236,0.177l-0.118,-0.28l0.236,-0.177l0.309,-0.221Zm17.4,-8.846l-5.476,4.062l-0.235,0.177l0.117,0.265l0.236,-0.177l5.137,-3.813l0.457,-0.338l0.221,-0.515l-0.457,0.339Zm-4.21,7.066l-0.235,0.176l0.103,0.28l0.235,-0.177l1.487,-1.104l0.456,-0.338l0.221,-0.516l-0.456,0.339l-1.811,1.34Zm15.56,19.461l-0,2.576l-2.002,-2.576l-0.604,-0l0,3.739l0.649,-0l-0,-2.665l2.06,2.665l0.545,-0l0,-3.739l-0.648,-0Zm-6.315,-0l-0,3.739l2.797,-0l-0,-0.589l-2.149,-0l-0,-1.001l1.884,-0l-0,-0.589l-1.884,0l-0,-0.971l2.12,-0l-0,-0.589l-2.768,-0Zm-1.575,-0l-1.767,1.884l-0,-1.884l-0.648,-0l0,3.739l0.648,-0l-0,-1.089l0.574,-0.59l1.281,1.679l0.795,-0l-1.619,-2.135l1.545,-1.604l-0.809,-0Zm-6.418,-0l1.677,-0c0.236,-0 0.442,0.029 0.619,0.103c0.176,0.059 0.338,0.161 0.456,0.28c0.104,0.103 0.177,0.22 0.236,0.352c0.059,0.133 0.073,0.281 0.073,0.442l0,0.015c0,0.147 -0.029,0.295 -0.073,0.412c-0.045,0.118 -0.103,0.236 -0.177,0.324c-0.074,0.089 -0.177,0.177 -0.28,0.235c-0.103,0.074 -0.235,0.118 -0.353,0.148l1.001,1.413l-0.78,0l-0.928,-1.296l-0.824,0l0,1.296l-0.647,0l-0,-3.724Zm1.619,1.854c0.235,0 0.426,-0.059 0.559,-0.162c0.132,-0.117 0.206,-0.265 0.206,-0.456l0,-0.014c0,-0.206 -0.074,-0.354 -0.206,-0.457c-0.133,-0.103 -0.324,-0.162 -0.574,-0.162l-0.957,0l0,1.251l0.972,0Zm-5.315,-1.854l0,3.739l2.783,-0l-0,-0.589l-2.135,-0l-0,-1.001l1.87,-0l0,-0.589l-1.87,0l-0,-0.971l2.105,-0l0,-0.589l-2.753,-0Zm-3.857,-0.015l-0.927,2.782l-0.883,-2.767l-0.707,-0l1.295,3.768l0.575,0l0.912,-2.694l0.913,2.694l0.574,0l1.296,-3.768l-0.692,-0l-0.883,2.767l-0.913,-2.782l-0.56,-0Zm-6.227,0.015l1.664,-0c0.236,-0 0.442,0.029 0.618,0.103c0.177,0.073 0.339,0.161 0.457,0.28c0.103,0.103 0.176,0.22 0.235,0.352c0.059,0.133 0.073,0.281 0.073,0.442l0,0.015c0,0.147 -0.029,0.295 -0.073,0.412c-0.044,0.118 -0.103,0.236 -0.176,0.324c-0.074,0.089 -0.177,0.177 -0.281,0.235c-0.102,0.074 -0.235,0.118 -0.352,0.148l1.001,1.413l-0.781,0l-0.927,-1.296l-0.795,0l-0,1.296l-0.648,0l0,-3.724l-0.015,-0Zm1.62,1.854c0.235,0 0.427,-0.059 0.559,-0.162c0.133,-0.117 0.206,-0.265 0.206,-0.456l0,-0.014c0,-0.206 -0.073,-0.354 -0.206,-0.457c-0.132,-0.103 -0.324,-0.162 -0.574,-0.162l-0.942,0l-0,1.251l0.957,0Zm-5.315,-1.854l0,3.739l2.783,-0l-0,-0.589l-2.134,-0l-0,-1.001l1.869,-0l-0,-0.589l-1.869,0l-0,-0.971l2.104,-0l0,-0.589l-2.753,-0Zm-1.796,-0l-1.133,1.766l-1.133,-1.766l-0.707,-0l-0,3.739l0.648,-0l-0,-2.665l1.177,1.737l0.015,-0l1.177,-1.751l0,2.679l0.649,-0l-0,-3.739l-0.693,-0Zm-4.769,-0l-1.134,1.766l-1.133,-1.766l-0.692,-0l0,3.739l0.648,-0l-0,-2.665l1.163,1.737l0.029,-0l1.178,-1.751l0,2.679l0.648,-0l-0,-3.739l-0.707,-0Zm-4.755,-0l0.648,-0l-0,3.739l-0.648,-0l0,-3.739Zm-3.886,-0l-0,0.603l1.177,0l0,3.136l0.663,-0l-0,-3.136l1.192,0l0,-0.603l-3.032,-0Zm-3.224,3.297c-0.162,0.147 -0.339,0.265 -0.516,0.353c-0.191,0.089 -0.397,0.133 -0.617,0.133c-0.178,0 -0.339,-0.03 -0.487,-0.073c-0.147,-0.045 -0.279,-0.119 -0.382,-0.222c-0.104,-0.088 -0.191,-0.206 -0.251,-0.338c-0.059,-0.133 -0.088,-0.28 -0.088,-0.441c0,-0.236 0.074,-0.443 0.206,-0.619c0.133,-0.176 0.339,-0.309 0.589,-0.427c-0.103,-0.133 -0.191,-0.265 -0.236,-0.382c-0.043,-0.118 -0.073,-0.251 -0.073,-0.384l-0,-0.014c-0,-0.118 0.03,-0.25 0.073,-0.353c0.045,-0.118 0.119,-0.221 0.222,-0.295c0.088,-0.088 0.205,-0.147 0.338,-0.206c0.132,-0.059 0.28,-0.073 0.441,-0.073c0.148,-0 0.28,0.029 0.413,0.073c0.117,0.044 0.22,0.103 0.309,0.192c0.088,0.088 0.147,0.176 0.206,0.294c0.044,0.118 0.074,0.22 0.074,0.353l-0,0.015c-0,0.25 -0.074,0.441 -0.221,0.604c-0.148,0.162 -0.354,0.279 -0.603,0.367l0.632,0.648c0.074,-0.103 0.147,-0.221 0.206,-0.339c0.074,-0.117 0.133,-0.249 0.192,-0.382l0.5,0.265c-0.073,0.147 -0.147,0.294 -0.235,0.441c-0.089,0.148 -0.177,0.28 -0.265,0.413l0.588,0.603l-0.485,0.353l-0.53,-0.559Zm-1.075,-0.058c0.133,-0 0.25,-0.03 0.368,-0.089c0.118,-0.059 0.236,-0.133 0.339,-0.236l-0.839,-0.854c-0.177,0.074 -0.295,0.162 -0.383,0.28c-0.073,0.104 -0.118,0.221 -0.118,0.339l0,0.014c0,0.162 0.059,0.295 0.177,0.398c0.117,0.103 0.265,0.148 0.456,0.148m0.088,-1.767c0.192,-0.074 0.339,-0.148 0.442,-0.236c0.103,-0.088 0.147,-0.206 0.147,-0.339l0,-0.014c0,-0.118 -0.044,-0.221 -0.118,-0.31c-0.073,-0.073 -0.176,-0.117 -0.309,-0.117c-0.132,-0 -0.235,0.044 -0.324,0.133c-0.073,0.088 -0.117,0.191 -0.117,0.323l-0,0.015c-0,0.089 0.014,0.176 0.059,0.265c0.044,0.059 0.117,0.162 0.22,0.28m-6.698,-1.487l-0.912,2.782l-0.898,-2.767l-0.707,-0l1.31,3.768l0.56,0l0.912,-2.694l0.928,2.694l0.559,0l1.31,-3.768l-0.691,-0l-0.898,2.767l-0.913,-2.782l-0.56,-0Zm-4.857,3.813c-0.236,-0 -0.457,-0.03 -0.663,-0.104c-0.192,-0.073 -0.368,-0.176 -0.5,-0.309c-0.133,-0.132 -0.251,-0.308 -0.325,-0.515c-0.073,-0.206 -0.117,-0.442 -0.117,-0.707l-0,-2.149l0.647,0l0,2.106c0,0.353 0.089,0.618 0.251,0.794c0.162,0.177 0.398,0.266 0.692,0.266c0.294,-0 0.53,-0.089 0.691,-0.266c0.162,-0.176 0.251,-0.427 0.251,-0.78l-0,-2.149l0.647,-0l0,2.135c0,0.279 -0.044,0.515 -0.117,0.735c-0.074,0.206 -0.177,0.384 -0.324,0.53c-0.133,0.148 -0.309,0.251 -0.501,0.309c-0.176,0.059 -0.397,0.104 -0.632,0.104m-4.417,-0c-0.294,-0 -0.545,-0.045 -0.795,-0.148c-0.235,-0.103 -0.441,-0.235 -0.618,-0.411c-0.177,-0.178 -0.309,-0.384 -0.398,-0.604c-0.103,-0.236 -0.147,-0.486 -0.147,-0.751l0,-0.015c0,-0.265 0.044,-0.515 0.147,-0.75c0.103,-0.236 0.236,-0.442 0.413,-0.619c0.176,-0.176 0.382,-0.309 0.618,-0.412c0.235,-0.103 0.5,-0.162 0.795,-0.162c0.294,-0 0.545,0.044 0.795,0.147c0.235,0.103 0.442,0.236 0.618,0.413c0.176,0.176 0.309,0.382 0.398,0.603c0.103,0.235 0.146,0.486 0.146,0.751l0,0.014c0,0.266 -0.043,0.516 -0.146,0.751c-0.103,0.236 -0.236,0.442 -0.413,0.618c-0.176,0.177 -0.382,0.31 -0.618,0.413c-0.25,0.117 -0.515,0.162 -0.795,0.162m-0,-0.604c0.177,0 0.353,-0.029 0.501,-0.103c0.147,-0.074 0.279,-0.162 0.397,-0.28c0.103,-0.118 0.192,-0.264 0.25,-0.412c0.059,-0.162 0.089,-0.323 0.089,-0.515l-0,-0.015c-0,-0.177 -0.03,-0.353 -0.089,-0.515c-0.058,-0.162 -0.147,-0.309 -0.265,-0.427c-0.117,-0.118 -0.25,-0.221 -0.397,-0.279c-0.162,-0.075 -0.324,-0.104 -0.515,-0.104c-0.177,0 -0.354,0.029 -0.501,0.104c-0.147,0.073 -0.28,0.161 -0.397,0.279c-0.103,0.118 -0.192,0.265 -0.251,0.412c-0.058,0.162 -0.088,0.324 -0.088,0.515l-0,0.015c-0,0.177 0.03,0.353 0.088,0.515c0.059,0.163 0.148,0.309 0.265,0.427c0.118,0.118 0.251,0.221 0.398,0.28c0.162,0.074 0.339,0.103 0.515,0.103m-5.771,-3.194l1.679,-0c0.426,-0 0.75,0.103 0.971,0.324c0.162,0.162 0.25,0.368 0.25,0.618l0,0.015c0,0.117 -0.014,0.22 -0.044,0.294c-0.029,0.088 -0.073,0.162 -0.117,0.236c-0.045,0.073 -0.104,0.117 -0.177,0.176c-0.074,0.059 -0.133,0.089 -0.192,0.132c0.104,0.045 0.207,0.089 0.295,0.133c0.088,0.059 0.162,0.118 0.235,0.192c0.059,0.073 0.118,0.146 0.148,0.25c0.029,0.103 0.059,0.206 0.059,0.339l-0,0.014c-0,0.162 -0.03,0.309 -0.103,0.442c-0.059,0.132 -0.162,0.235 -0.28,0.323c-0.118,0.089 -0.265,0.148 -0.442,0.192c-0.177,0.044 -0.353,0.073 -0.559,0.073l-1.723,0l0,-3.753Zm1.546,1.575c0.206,-0 0.383,-0.045 0.515,-0.133c0.133,-0.088 0.192,-0.206 0.192,-0.382l-0,-0.015c-0,-0.148 -0.059,-0.265 -0.162,-0.353c-0.118,-0.089 -0.28,-0.133 -0.486,-0.133l-0.942,-0l-0,0.987l0.883,-0l0,0.029Zm0.191,1.575c0.221,-0 0.398,-0.044 0.53,-0.133c0.133,-0.088 0.192,-0.206 0.192,-0.382l0,-0.015c0,-0.162 -0.059,-0.28 -0.192,-0.368c-0.132,-0.089 -0.323,-0.132 -0.574,-0.132l-1.03,-0l-0,1.03l1.074,-0Z" style="fill:#006294;fill-rule:nonzero;"/></svg>