<?xml version="1.0" encoding="UTF-8" standalone="no"?><!DOCTYPE svg PUBLIC "-//W3C//DTD SVG 1.1//EN" "http://www.w3.org/Graphics/SVG/1.1/DTD/svg11.dtd"><svg width="46" height="31" viewBox="0 0 46 31"  version="1.1" xmlns="http://www.w3.org/2000/svg" xmlns:xlink="http://www.w3.org/1999/xlink" xml:space="preserve" xmlns:serif="http://www.serif.com/" style="fill-rule:evenodd;clip-rule:evenodd;stroke-linejoin:round;stroke-miterlimit:2;"><path d="M80.396,17.796l0,39.876l13.902,-10.292l0,-29.584l-13.902,-0Zm0,81.67l0,57.876c0,5.124 -1.114,8.956 -3.342,11.406c-2.228,2.45 -5.212,3.698 -8.866,3.698c-3.298,-0 -6.148,-0.802 -8.554,-2.36c-2.406,-1.56 -4.724,-3.788 -6.996,-6.64l-8.91,9.134c2.584,3.52 5.836,6.46 9.802,8.866c3.964,2.406 8.91,3.61 14.88,3.61c3.876,0 7.396,-0.58 10.56,-1.694c3.164,-1.158 5.882,-2.852 8.154,-5.124c2.272,-2.272 4.054,-5.124 5.302,-8.464c1.248,-3.386 1.872,-7.396 1.872,-12.03l0,-68.57l-13.902,10.292Zm81.268,84.432l-46.292,-110.364l-10.604,7.842l21.208,50.526l-21.208,0.044l0,13.856l27,0l15.996,38.096l13.9,0Zm100.116,-69.686l-29.274,69.818l-13.9,0l-14.838,-35.42l-14.88,35.42l-13.902,0l-49.412,-117.892l10.604,-7.886l45.804,109.204l14.836,-35.42l13.902,0l14.836,35.42l25.62,-61.13l10.604,7.886Zm-100.562,-104.212l-151.218,112.144l8.286,11.184l142.932,-106.042l143.156,106.176l8.288,-11.184l-151.444,-112.278Zm43.798,20.672l69.416,-0l-10.336,13.858l-7.084,-0l0,24.728l-13.856,-10.338l0,-14.39l-19.382,-0l-18.758,-13.858Zm-48.698,48.966l-0.668,0.534l-0.358,-0.846l0.714,-0.49l28.872,-21.43l0.712,0.534l-29.272,21.698Zm5.524,-39.208l-0.712,-0.534l-17.154,12.608l0.356,0.848l17.51,-12.922Zm7.574,5.614l-20.718,15.372l-0.668,0.534l-0.356,-0.846l0.668,-0.536l20.362,-15.058l0.712,0.534Zm8.11,5.97l-24.996,18.49l-0.712,0.536l-0.356,-0.848l0.712,-0.49l24.594,-18.222l0.758,0.534Zm16.128,11.896l-33.504,24.862l-0.714,0.534l-0.312,-0.846l0.668,-0.534l33.15,-24.55l0.712,0.534Zm8.11,5.97l-37.782,27.982l-0.714,0.534l-0.356,-0.802l0.712,-0.534l37.426,-27.714l0.714,0.534Zm8.064,5.972l-42.016,31.144l-0.712,0.534l-0.356,-0.846l0.712,-0.49l41.66,-30.878l0.712,0.536Zm8.11,5.924l-46.338,34.354l-0.668,0.49l-0.356,-0.804l0.712,-0.534l45.892,-34.04l0.758,0.534Zm8.064,5.972l-50.57,37.47l-0.714,0.536l-0.356,-0.804l0.714,-0.534l50.212,-37.204l0.714,0.536Zm-38.318,39.298l-8.776,6.46l-0.714,0.534l0.356,0.846l0.714,-0.534l7.752,-5.748l1.382,-1.024l0.668,-1.56l-1.382,1.026Zm46.382,-33.328l-37.648,27.936l-1.204,0.846l-1.426,-0l1.158,-0.846l38.408,-28.47l0.668,0.49l0.044,0.044Zm8.064,5.97l-0.088,-0.134l-0.58,-0.446l-30.386,22.546l-1.204,0.846l1.472,-0l1.202,-0.846l29.584,-21.966Zm-58.412,41.926l-0.49,1.472l-0.088,0.044l-0.714,0.534l-0.356,-0.846l0.714,-0.536l0.934,-0.668Zm52.664,-26.776l-16.574,12.296l-0.712,0.536l0.356,0.8l0.712,-0.534l15.55,-11.54l1.382,-1.024l0.668,-1.56l-1.382,1.026Zm-12.742,21.386l-0.712,0.534l0.312,0.846l0.712,-0.534l4.5,-3.342l1.382,-1.024l0.668,-1.56l-1.382,1.026l-5.48,4.054Zm47.094,58.902l-0,7.796l-6.058,-7.796l-1.828,-0l-0,11.316l1.962,-0l-0,-8.064l6.236,8.064l1.65,-0l-0,-11.316l-1.962,-0Zm-19.114,-0l-0,11.316l8.466,-0l-0,-1.782l-6.504,-0l-0,-3.03l5.702,0l-0,-1.782l-5.702,-0l-0,-2.94l6.416,-0l-0,-1.782l-8.378,-0Zm-4.766,-0l-5.348,5.702l-0,-5.702l-1.96,-0l-0,11.316l1.96,-0l-0,-3.296l1.738,-1.784l3.876,5.08l2.406,-0l-4.9,-6.46l4.678,-4.856l-2.45,-0Zm-19.426,-0l5.078,-0c0.714,-0 1.338,0.088 1.872,0.312c0.534,0.178 1.024,0.488 1.382,0.846c0.312,0.312 0.534,0.668 0.712,1.068c0.178,0.402 0.222,0.848 0.222,1.338l-0,0.044c-0,0.446 -0.088,0.892 -0.222,1.248c-0.134,0.356 -0.312,0.712 -0.534,0.98c-0.224,0.268 -0.536,0.534 -0.848,0.712c-0.312,0.224 -0.712,0.356 -1.068,0.446l3.03,4.278l-2.362,-0l-2.808,-3.922l-2.494,-0l-0,3.922l-1.96,-0l-0,-11.272Zm4.9,5.612c0.714,-0 1.292,-0.178 1.694,-0.49c0.4,-0.356 0.624,-0.802 0.624,-1.38l-0,-0.044c-0,-0.624 -0.224,-1.07 -0.624,-1.382c-0.402,-0.312 -0.98,-0.49 -1.738,-0.49l-2.896,-0l-0,3.786l2.94,0Zm-16.084,-5.612l-0,11.316l8.422,-0l-0,-1.782l-6.462,0l-0,-3.03l5.66,0l-0,-1.782l-5.66,0l-0,-2.94l6.372,0l-0,-1.782l-8.332,0Zm-11.674,-0.046l-2.806,8.422l-2.674,-8.376l-2.138,0l3.92,11.406l1.738,0l2.762,-8.154l2.764,8.154l1.736,0l3.922,-11.406l-2.094,0l-2.674,8.376l-2.762,-8.422l-1.694,0Zm-18.846,0.046l5.034,0c0.714,0 1.338,0.088 1.872,0.312c0.534,0.222 1.024,0.488 1.382,0.846c0.312,0.312 0.534,0.668 0.712,1.068c0.178,0.402 0.222,0.848 0.222,1.338l-0,0.044c-0,0.446 -0.088,0.892 -0.222,1.248c-0.134,0.356 -0.312,0.712 -0.534,0.98c-0.224,0.268 -0.536,0.534 -0.848,0.712c-0.31,0.224 -0.712,0.356 -1.068,0.446l3.03,4.278l-2.362,0l-2.808,-3.922l-2.406,0l-0,3.922l-1.96,0l-0,-11.272l-0.044,0Zm4.902,5.612c0.712,0 1.292,-0.178 1.692,-0.49c0.402,-0.356 0.624,-0.802 0.624,-1.38l-0,-0.044c-0,-0.624 -0.222,-1.07 -0.624,-1.382c-0.4,-0.312 -0.98,-0.49 -1.738,-0.49l-2.852,0l-0,3.786l2.898,0Zm-16.086,-5.612l-0,11.316l8.422,0l-0,-1.782l-6.46,0l-0,-3.03l5.658,0l0,-1.782l-5.658,0l-0,-2.94l6.37,0l-0,-1.782l-8.332,0Zm-5.436,0l-3.43,5.346l-3.43,-5.346l-2.14,0l-0,11.316l1.962,0l0,-8.064l3.564,5.256l0.044,0l3.564,-5.3l-0,8.108l1.962,0l0,-11.316l-2.096,0Zm-14.434,0l-3.432,5.346l-3.43,-5.346l-2.094,0l-0,11.316l1.96,0l0,-8.064l3.52,5.256l0.09,0l3.564,-5.3l-0,8.108l1.96,0l-0,-11.316l-2.138,0Zm-14.392,0l1.96,0l-0,11.316l-1.96,0l-0,-11.316Zm-11.762,0l-0,1.826l3.564,0l-0,9.49l2.004,0l-0,-9.49l3.61,0l-0,-1.826l-9.178,0Zm-9.758,9.98c-0.49,0.444 -1.024,0.802 -1.56,1.068c-0.578,0.268 -1.202,0.402 -1.87,0.402c-0.536,0 -1.026,-0.09 -1.472,-0.222c-0.444,-0.134 -0.846,-0.358 -1.158,-0.67c-0.312,-0.266 -0.578,-0.624 -0.758,-1.024c-0.178,-0.402 -0.266,-0.846 -0.266,-1.336c-0,-0.714 0.222,-1.338 0.624,-1.872c0.4,-0.534 1.024,-0.936 1.782,-1.292c-0.312,-0.402 -0.58,-0.802 -0.714,-1.158c-0.132,-0.356 -0.222,-0.758 -0.222,-1.16l-0,-0.044c-0,-0.356 0.09,-0.756 0.222,-1.068c0.134,-0.358 0.358,-0.67 0.67,-0.892c0.266,-0.268 0.622,-0.446 1.024,-0.624c0.4,-0.178 0.846,-0.222 1.336,-0.222c0.446,0 0.846,0.088 1.248,0.222c0.356,0.134 0.668,0.312 0.936,0.58c0.266,0.266 0.446,0.534 0.624,0.89c0.134,0.358 0.222,0.668 0.222,1.07l-0,0.044c-0,0.758 -0.222,1.336 -0.668,1.828c-0.446,0.49 -1.07,0.846 -1.826,1.112l1.914,1.962c0.224,-0.312 0.446,-0.67 0.624,-1.026c0.224,-0.356 0.402,-0.756 0.58,-1.158l1.514,0.802c-0.222,0.446 -0.444,0.892 -0.712,1.336c-0.268,0.446 -0.534,0.848 -0.802,1.248l1.782,1.828l-1.47,1.068l-1.604,-1.692Zm-3.252,-0.178c0.4,0 0.756,-0.09 1.114,-0.268c0.356,-0.178 0.712,-0.402 1.024,-0.714l-2.54,-2.584c-0.534,0.224 -0.89,0.49 -1.158,0.848c-0.222,0.312 -0.356,0.668 -0.356,1.024l-0,0.044c-0,0.49 0.178,0.892 0.534,1.204c0.356,0.312 0.802,0.446 1.382,0.446m0.266,-5.348c0.58,-0.222 1.026,-0.446 1.338,-0.712c0.312,-0.268 0.444,-0.624 0.444,-1.026l-0,-0.044c-0,-0.356 -0.132,-0.668 -0.356,-0.936c-0.222,-0.222 -0.534,-0.356 -0.936,-0.356c-0.4,0 -0.712,0.134 -0.98,0.402c-0.222,0.266 -0.356,0.578 -0.356,0.98l-0,0.044c-0,0.268 0.044,0.534 0.178,0.802c0.134,0.178 0.356,0.49 0.668,0.846m-20.272,-4.5l-2.762,8.422l-2.718,-8.376l-2.138,0l3.964,11.406l1.694,0l2.762,-8.154l2.808,8.154l1.692,0l3.966,-11.406l-2.094,0l-2.718,8.376l-2.762,-8.422l-1.694,0Zm-14.702,11.54c-0.714,0 -1.382,-0.088 -2.006,-0.312c-0.58,-0.222 -1.114,-0.534 -1.514,-0.936c-0.402,-0.4 -0.758,-0.934 -0.982,-1.558c-0.222,-0.624 -0.356,-1.338 -0.356,-2.14l-0,-6.504l1.96,0l-0,6.372c-0,1.068 0.268,1.87 0.758,2.404c0.49,0.536 1.204,0.804 2.094,0.804c0.892,0 1.604,-0.268 2.094,-0.804c0.49,-0.534 0.758,-1.292 0.758,-2.36l0,-6.506l1.96,0l0,6.462c0,0.846 -0.134,1.558 -0.356,2.226c-0.222,0.624 -0.534,1.16 -0.98,1.604c-0.402,0.446 -0.936,0.758 -1.516,0.936c-0.534,0.178 -1.202,0.312 -1.914,0.312m-13.368,0c-0.89,0 -1.648,-0.134 -2.406,-0.446c-0.712,-0.312 -1.336,-0.712 -1.87,-1.246c-0.536,-0.536 -0.936,-1.16 -1.204,-1.828c-0.312,-0.712 -0.446,-1.47 -0.446,-2.272l0,-0.044c0,-0.802 0.134,-1.56 0.446,-2.272c0.312,-0.714 0.714,-1.338 1.248,-1.872c0.534,-0.534 1.158,-0.936 1.872,-1.248c0.712,-0.312 1.514,-0.49 2.406,-0.49c0.89,0 1.648,0.134 2.406,0.446c0.712,0.312 1.336,0.712 1.87,1.248c0.534,0.534 0.936,1.158 1.204,1.826c0.312,0.712 0.444,1.47 0.444,2.272l0,0.044c0,0.804 -0.132,1.56 -0.444,2.274c-0.312,0.712 -0.714,1.336 -1.248,1.87c-0.534,0.536 -1.158,0.936 -1.872,1.248c-0.756,0.356 -1.558,0.49 -2.406,0.49m0,-1.826c0.536,0 1.07,-0.09 1.516,-0.312c0.444,-0.224 0.846,-0.49 1.202,-0.848c0.312,-0.356 0.58,-0.8 0.758,-1.246c0.178,-0.49 0.268,-0.98 0.268,-1.56l0,-0.044c0,-0.536 -0.09,-1.07 -0.268,-1.56c-0.178,-0.49 -0.446,-0.936 -0.802,-1.292c-0.356,-0.356 -0.758,-0.668 -1.204,-0.846c-0.49,-0.224 -0.98,-0.312 -1.558,-0.312c-0.536,0 -1.07,0.088 -1.516,0.312c-0.446,0.222 -0.846,0.49 -1.202,0.846c-0.312,0.356 -0.58,0.802 -0.758,1.248c-0.178,0.49 -0.268,0.98 -0.268,1.558l0,0.046c0,0.534 0.09,1.068 0.268,1.558c0.178,0.492 0.446,0.936 0.802,1.292c0.356,0.358 0.758,0.67 1.204,0.848c0.49,0.222 1.024,0.312 1.558,0.312m-17.466,-9.668l5.08,0c1.292,0 2.272,0.312 2.94,0.98c0.49,0.49 0.758,1.114 0.758,1.87l0,0.046c0,0.356 -0.044,0.668 -0.134,0.89c-0.088,0.268 -0.222,0.49 -0.356,0.714c-0.134,0.222 -0.312,0.356 -0.534,0.534c-0.224,0.178 -0.402,0.268 -0.58,0.4c0.312,0.134 0.624,0.268 0.892,0.402c0.266,0.178 0.49,0.356 0.712,0.58c0.178,0.222 0.356,0.444 0.446,0.756c0.088,0.312 0.178,0.624 0.178,1.026l0,0.044c0,0.49 -0.09,0.936 -0.312,1.336c-0.178,0.402 -0.49,0.714 -0.846,0.98c-0.356,0.268 -0.802,0.446 -1.338,0.58c-0.534,0.134 -1.068,0.222 -1.692,0.222l-5.214,0l0,-11.36Zm4.68,4.766c0.622,0 1.158,-0.134 1.558,-0.4c0.402,-0.268 0.58,-0.624 0.58,-1.158l0,-0.046c0,-0.446 -0.178,-0.802 -0.49,-1.068c-0.356,-0.268 -0.846,-0.402 -1.47,-0.402l-2.852,0l0,2.986l2.674,0l0,0.088Zm0.578,4.768c0.668,0 1.204,-0.134 1.604,-0.402c0.402,-0.266 0.58,-0.624 0.58,-1.158l0,-0.044c0,-0.49 -0.178,-0.846 -0.58,-1.114c-0.4,-0.268 -0.98,-0.4 -1.738,-0.4l-3.118,0l0,3.118l3.252,0Z" style="fill:#006294;fill-rule:nonzero;"/><path d="M393.396,17.796l0,39.876l13.902,-10.292l0,-29.584l-13.902,-0Zm0,81.67l0,57.876c0,5.124 -1.114,8.956 -3.342,11.406c-2.228,2.45 -5.212,3.698 -8.866,3.698c-3.298,-0 -6.148,-0.802 -8.554,-2.36c-2.406,-1.56 -4.724,-3.788 -6.996,-6.64l-8.91,9.134c2.584,3.52 5.836,6.46 9.802,8.866c3.964,2.406 8.91,3.61 14.88,3.61c3.876,0 7.396,-0.58 10.56,-1.694c3.164,-1.158 5.882,-2.852 8.154,-5.124c2.272,-2.272 4.054,-5.124 5.302,-8.464c1.248,-3.386 1.872,-7.396 1.872,-12.03l-0,-68.57l-13.902,10.292Zm81.268,84.432l-46.292,-110.364l-10.604,7.842l21.208,50.526l-21.208,0.044l-0,13.856l27,0l15.996,38.096l13.9,0Zm100.116,-69.686l-29.274,69.818l-13.9,0l-14.838,-35.42l-14.88,35.42l-13.902,0l-49.412,-117.892l10.604,-7.886l45.804,109.204l14.836,-35.42l13.902,0l14.836,35.42l25.62,-61.13l10.604,7.886Zm-100.562,-104.212l-151.218,112.144l8.286,11.184l142.932,-106.042l143.156,106.176l8.288,-11.184l-151.444,-112.278Zm43.798,20.672l69.416,-0l-10.336,13.858l-7.084,-0l-0,24.728l-13.856,-10.338l-0,-14.39l-19.382,-0l-18.758,-13.858Zm-48.698,48.966l-0.668,0.534l-0.358,-0.846l0.714,-0.49l28.872,-21.43l0.712,0.534l-29.272,21.698Zm5.524,-39.208l-0.712,-0.534l-17.154,12.608l0.356,0.848l17.51,-12.922Zm7.574,5.614l-20.718,15.372l-0.668,0.534l-0.356,-0.846l0.668,-0.536l20.362,-15.058l0.712,0.534Zm8.11,5.97l-24.996,18.49l-0.712,0.536l-0.356,-0.848l0.712,-0.49l24.594,-18.222l0.758,0.534Zm16.128,11.896l-33.504,24.862l-0.714,0.534l-0.312,-0.846l0.668,-0.534l33.15,-24.55l0.712,0.534Zm8.11,5.97l-37.782,27.982l-0.714,0.534l-0.356,-0.802l0.712,-0.534l37.426,-27.714l0.714,0.534Zm8.064,5.972l-42.016,31.144l-0.712,0.534l-0.356,-0.846l0.712,-0.49l41.66,-30.878l0.712,0.536Zm8.11,5.924l-46.338,34.354l-0.668,0.49l-0.356,-0.804l0.712,-0.534l45.892,-34.04l0.758,0.534Zm8.064,5.972l-50.57,37.47l-0.714,0.536l-0.356,-0.804l0.714,-0.534l50.212,-37.204l0.714,0.536Zm-38.318,39.298l-8.776,6.46l-0.714,0.534l0.356,0.846l0.714,-0.534l7.752,-5.748l1.382,-1.024l0.668,-1.56l-1.382,1.026Zm46.382,-33.328l-37.648,27.936l-1.204,0.846l-1.426,-0l1.158,-0.846l38.408,-28.47l0.668,0.49l0.044,0.044Zm8.064,5.97l-0.088,-0.134l-0.58,-0.446l-30.386,22.546l-1.204,0.846l1.472,-0l1.202,-0.846l29.584,-21.966Zm-58.412,41.926l-0.49,1.472l-0.088,0.044l-0.714,0.534l-0.356,-0.846l0.714,-0.536l0.934,-0.668Zm52.664,-26.776l-16.574,12.296l-0.712,0.536l0.356,0.8l0.712,-0.534l15.55,-11.54l1.382,-1.024l0.668,-1.56l-1.382,1.026Zm-12.742,21.386l-0.712,0.534l0.312,0.846l0.712,-0.534l4.5,-3.342l1.382,-1.024l0.668,-1.56l-1.382,1.026l-5.48,4.054Z" style="fill:#006294;fill-rule:nonzero;"/></svg>